<svg id="schet_icon" xmlns="http://www.w3.org/2000/svg" viewBox="0 0 36.739 34.543">
  <defs>
    <style>
      .cls-1 {
        fill: #fff;
        stroke: #fff;
        stroke-miterlimit: 10;
      }
    </style>
  </defs>
  <g id="Group_322" data-name="Group 322" transform="translate(0.5 0.5)">
    <path id="Path_157" data-name="Path 157" class="cls-1" d="M33.165,27.194a3.054,3.054,0,0,0,3.073-3.073V3.573A3.054,3.054,0,0,0,33.165.5H3.573A3.054,3.054,0,0,0,.5,3.573V24.121a3.054,3.054,0,0,0,3.073,3.073H14.725l-2.239,5.971H9.852a.439.439,0,0,0,0,.878H26.843a.439.439,0,1,0,0-.878H24.209l-2.2-5.971H33.165ZM3.573,1.378H33.165a2.174,2.174,0,0,1,2.2,2.2V19.73H1.378V3.573A2.174,2.174,0,0,1,3.573,1.378Zm-2.2,22.743V20.609H35.361v3.512a2.174,2.174,0,0,1-2.2,2.2H3.573A2.174,2.174,0,0,1,1.378,24.121Zm21.909,9.044H13.452l2.239-5.971h5.356Z" transform="translate(-0.5 -0.5)"/>
  </g>
  <path id="Path_158" data-name="Path 158" class="cls-1" d="M37.8,17.1H26.649A1.462,1.462,0,0,0,25.2,18.549v6.278a1.462,1.462,0,0,0,1.449,1.449H37.8a1.462,1.462,0,0,0,1.449-1.449V18.549A1.462,1.462,0,0,0,37.8,17.1Zm-2.986,4.259,3.732-3.073a.557.557,0,0,1,.044.263v6.278a.4.4,0,0,1-.044.22ZM37.8,17.715a1.033,1.033,0,0,1,.351.088l-5.883,4.83L26.385,17.8a.827.827,0,0,1,.351-.088ZM25.859,25.047c0-.088-.044-.132-.044-.22V18.549a.557.557,0,0,1,.044-.263l3.732,3.073Zm.79.571a.827.827,0,0,1-.351-.088l3.864-3.776,2.064,1.712,2.064-1.712,3.864,3.776a.827.827,0,0,1-.351.088Z" transform="translate(-13.855 -9.312)"/>
</svg>
