<svg xmlns="http://www.w3.org/2000/svg" viewBox="0 0 39.5 47.5">
  <defs>
    <style>
      .cls-1 {
        fill: none;
        stroke: #fff;
        stroke-miterlimit: 10;
        stroke-width: 2px;
      }

      .cls-2 {
        fill: #fff;
      }
    </style>
  </defs>
  <g id="wallet_icon_top" transform="translate(0.5)">
    <path id="Path_160" data-name="Path 160" class="cls-1" d="M29.3,15H33a3.372,3.372,0,0,1,3.4,3.4V27"/>
    <path id="Path_161" data-name="Path 161" class="cls-1" d="M36.5,35.5v7.6a3.372,3.372,0,0,1-3.4,3.4H3.9A3.372,3.372,0,0,1,.5,43.1V18.4A3.372,3.372,0,0,1,3.9,15H16.7"/>
    <line id="Line_28" data-name="Line 28" class="cls-1" x2="32" transform="translate(4 19)"/>
    <path id="Path_162" data-name="Path 162" class="cls-1" d="M9,19s11.8-6.3,15.6-8.3a1.755,1.755,0,0,1,2.3.6L32,19"/>
    <circle id="Ellipse_32" data-name="Ellipse 32" class="cls-2" cx="1.5" cy="1.5" r="1.5" transform="translate(29 30)"/>
    <path id="Path_163" data-name="Path 163" class="cls-1" d="M24.8,30.4l3.4-2.7a1.421,1.421,0,0,1,.6-.2h8.3a.9.9,0,0,1,.9.9v5.7a.9.9,0,0,1-.9.9H28.4a.713.713,0,0,1-.6-.3l-3-3A.793.793,0,0,1,24.8,30.4Z"/>
    <path id="Path_164" data-name="Path 164" class="cls-1" d="M34,0"/>
  </g>
</svg>
