<?xml version="1.0" encoding="utf-8"?>
<svg xmlns="http://www.w3.org/2000/svg"
	xmlns:xlink="http://www.w3.org/1999/xlink"
	width="8px" height="10px" viewBox="0 0 8 10">
<path fillRule="evenodd" d="M 7.56 6.12C 7.56 6.12 1.34 9.87 1.34 9.87 0.91 10.13 0.36 9.98 0.11 9.53-0.13 9.08 0.01 8.51 0.44 8.25 0.44 8.25 5.83 5 5.83 5 5.83 5 0.44 1.75 0.44 1.75 0.01 1.49-0.13 0.92 0.11 0.47 0.36 0.02 0.91-0.13 1.34 0.13 1.34 0.13 7.56 3.88 7.56 3.88 7.94 4.11 8.08 4.58 7.94 5 8.08 5.42 7.94 5.89 7.56 6.12Z" fill="rgb(243,146,0)"/></svg>