<?xml version="1.0" encoding="utf-8"?>
<!-- Generator: Adobe Illustrator 16.0.0, SVG Export Plug-In . SVG Version: 6.00 Build 0)  -->
<!DOCTYPE svg PUBLIC "-//W3C//DTD SVG 1.1//EN" "http://www.w3.org/Graphics/SVG/1.1/DTD/svg11.dtd">
<svg version="1.1" id="Layer_1" xmlns="http://www.w3.org/2000/svg" xmlns:xlink="http://www.w3.org/1999/xlink" x="0px" y="0px"
	 width="291px" height="95px" viewBox="0 0 291 95" enable-background="new 0 0 291 95" xml:space="preserve">
<path fill="#FFFFFF" d="M89.193,47.601H72.234V44.47h1.619c2.396,0,3.789-1.072,3.789-3.656V15.453c0-2.598-1.111-3.416-3.51-3.416
	h-1.787V8.914h16.746v3.123h-1.629c-2.563,0-3.527,0.373-3.527,3.416v25.361c0,3.047,1.152,3.656,3.719,3.656h1.539V47.601
	L89.193,47.601z M140.736,40.814V15.453c0-3.043,0.975-3.416,3.531-3.416h1.637V8.914h-16.76v3.123h1.793
	c2.396,0,3.51,0.818,3.51,3.416v25.361c0,2.584-1.393,3.656-3.785,3.656h-1.625v3.131h16.965V44.47h-1.543
	C141.893,44.47,140.736,43.861,140.736,40.814L140.736,40.814z M102.025,44.47h-1.738v3.131h17.662V44.47h-1.734
	c-2.398,0-3.949-1.063-3.949-3.656V12.037h5.91c3.475,0,4.408,2.375,4.408,4.938v2.117h2.904V8.914H92.756v10.178h2.91v-2.117
	c0-2.563,0.924-4.938,4.395-4.938h5.91v28.777C105.971,43.408,104.428,44.47,102.025,44.47L102.025,44.47z M177.746,37.777
	c0,3.215-0.889,6.693-7.752,6.693h-11.902l22.164-32.434V8.9h-29.277v10.484h2.959v-1.295c0-3.299,1.539-6.053,6.004-6.053
	c2.705,0,12.428,0.035,12.428,0.035L150.285,44.47v3.123h30.354V37.087h-2.893V37.777L177.746,37.777z M213.57,38.08
	c0,3.447-1.676,6.391-5.961,6.391h-11.496V29.308h6.934c2.789,0,3.406,2.352,3.406,4.016v1.611h3.021v-14.5h-3.021v1.279
	c0,1.664-0.617,4.014-3.406,4.014h-6.934V12.037h10.977c5.494,0,5.627,4.576,5.627,6.275v0.846h2.904V8.914h-30.762v3.123h0.68
	c2.656,0,4.018,0.32,4.018,2.713v26.523c0,2.771-1.824,3.197-3.537,3.197h-0.973v3.131h31.309V37.052h-2.785V38.08L213.57,38.08z
	 M254.072,15.697c0-2.623,1.078-3.66,4.129-3.66h0.809V8.914h-13.793v3.123h0.873c3.047,0,4.141,1.037,4.141,3.66v21.467
	l-19.34-28.25h-10.172v3.123h0.955c1.887,0,3.35,0.752,3.35,3.74v25.318c0,2.57-1.85,3.375-3.256,3.375h-1.307v3.131h13.195V44.47
	h-1.268c-1.4,0-3.521-0.346-3.521-3.375V17.449l20.674,30.152h4.531V15.697L254.072,15.697z M55.264,45.521
	c-7.689,0-13.801-7.34-13.801-17.264c0-10.771,4.4-17.725,13.064-17.725c7.18,0,10.029,3.688,11.15,8.283h2.734
	c-0.35-2.736-0.826-7.479-0.801-8.537c-2.387-0.502-6.852-2.811-13.525-2.811c-11.805,0-20.334,8.072-20.334,20.789
	c0,12.428,9.834,20.332,20.225,20.332c4.799,0,9.561-1.135,13.574-4.119c0.186-1,0.857-3.904,1.529-6.236h-2.998
	C63.877,43.527,59.744,45.521,55.264,45.521L55.264,45.521z"/>
<path fill="#FFFFFF" d="M70.32,90.143h8.389v-1.504h-6.727v-5.377h6.525v-1.5h-6.525v-4.99h6.727v-1.504H70.32V90.143L70.32,90.143z
	 M14.025,86.055c0,2.229-1.801,4.088-4.453,4.088H4.646V75.268h4.789c2.59,0,4.033,1.643,4.033,3.479
	c0,1.646-0.434,3.252-2.412,3.643v0.041C12.658,82.545,14.025,83.652,14.025,86.055L14.025,86.055z M6.307,81.879h2.473
	c1.818,0,2.908-0.975,2.908-2.715c0-1.961-1.146-2.512-2.846-2.512H6.307V81.879L6.307,81.879z M12.359,85.934
	c0-1.168-0.85-2.672-3.32-2.672H6.307v5.377H9.41C11.332,88.639,12.359,87.393,12.359,85.934L12.359,85.934z M52.648,76.771h4.514
	v13.371h1.66V76.771h4.514v-1.504H52.648V76.771L52.648,76.771z M21.879,90.143h8.393v-1.504h-6.73v-5.377h6.527v-1.5h-6.527v-4.99
	h6.73v-1.504h-8.393V90.143L21.879,90.143z M36.504,76.771h4.512v13.371h1.66V76.771h4.514v-1.504H36.504V76.771L36.504,76.771z
	 M181.463,76.771h4.516v13.371h1.658V76.771h4.516v-1.504h-10.689V76.771L181.463,76.771z M238.41,87.541h-0.035l-8.371-12.273
	h-1.801v14.875h1.662V77.875h0.041l8.367,12.268h1.805V75.268h-1.668V87.541L238.41,87.541z M263.35,82.709
	c0,4.494-3.264,7.713-7.561,7.713c-4.373,0-7.563-2.943-7.563-7.713c0-4.492,3.266-7.721,7.563-7.721
	C260.16,74.988,263.35,77.938,263.35,82.709L263.35,82.709z M261.566,82.709c0-3.01-1.641-6.213-5.777-6.213
	s-5.783,3.203-5.783,6.213c0,2.451,1.605,6.215,5.783,6.215C259.961,88.924,261.566,85.16,261.566,82.709L261.566,82.709z
	 M286.359,75.268l-2.928,12.41h-0.045l-3.539-12.41h-1.545l-3.535,12.305h-0.045l-2.932-12.305h-1.76l3.945,14.875h1.498
	l3.58-12.418h0.041l3.58,12.418h1.508l3.932-14.875H286.359L286.359,75.268z M204.045,81.723c-2.73-0.539-3.326-1.469-3.326-2.455
	c0-1.424,1.01-2.771,3.363-2.771c2.375,0,3.287,1.441,3.367,2.65h1.699c-0.295-2.152-1.424-4.158-5.09-4.158
	c-3.002,0-4.998,1.842-4.998,4.279c0,2.494,1.658,3.441,5.084,4.158c2.627,0.551,3.539,1.059,3.539,2.688
	c0,1.324-1.027,2.811-3.58,2.811c-2.152,0-3.486-0.934-3.781-2.896h-1.682c0.156,2.732,2.02,4.395,5.383,4.395
	c3.861,0,5.439-2.232,5.439-4.469C209.463,83.363,207.787,82.447,204.045,81.723L204.045,81.723z M119.25,81.723
	c-2.73-0.539-3.316-1.469-3.316-2.455c0-1.424,1.004-2.771,3.357-2.771c2.375,0,3.287,1.441,3.363,2.65h1.703
	c-0.299-2.152-1.428-4.158-5.084-4.158c-3.008,0-5.008,1.842-5.008,4.279c0,2.494,1.668,3.441,5.084,4.158
	c2.637,0.551,3.545,1.059,3.545,2.688c0,1.324-1.033,2.811-3.586,2.811c-2.152,0-3.479-0.934-3.771-2.896h-1.686
	c0.154,2.732,2.02,4.395,5.381,4.395c3.861,0,5.445-2.232,5.445-4.469C124.678,83.363,122.992,82.447,119.25,81.723L119.25,81.723z
	 M131.166,76.771h4.506v13.371h1.664V76.771h4.516v-1.504h-10.686V76.771L131.166,76.771z M172.422,83.617l3.957,6.525h-2.037
	l-3.664-6.361h-2.904v6.361h-1.664V75.268h4.613c3.971,0,5.084,2.117,5.084,4.057C175.807,81.998,174.063,83.221,172.422,83.617
	L172.422,83.617z M170.736,82.273c1.965,0,3.285-0.93,3.285-2.709c0-2.197-1.658-2.793-3.379-2.793h-2.869v5.502H170.736
	L170.736,82.273z M92.777,83.617l3.959,6.525h-2.037l-3.666-6.361h-2.904v6.361h-1.664V75.268h4.609c3.98,0,5.088,2.117,5.088,4.057
	C96.162,81.998,94.418,83.221,92.777,83.617L92.777,83.617z M91.096,82.273c1.957,0,3.283-0.93,3.283-2.709
	c0-2.197-1.66-2.793-3.381-2.793h-2.869v5.502H91.096L91.096,82.273z M153.527,75.268l5.594,14.875h-1.877l-1.484-4.189h-6.17
	l-1.486,4.189h-1.881l5.6-14.875H153.527L153.527,75.268z M155.203,84.449l-2.508-7.082h-0.045l-2.51,7.082H155.203L155.203,84.449z
	"/>
</svg>
