<?xml version="1.0" encoding="utf-8"?>
<svg xmlns="http://www.w3.org/2000/svg"
	xmlns:xlink="http://www.w3.org/1999/xlink"
	width="56px" height="56px" viewBox="0 0 56 56">
<filter filterUnits="objectBoundingBox" x="0.00" y="0.00" width="100.00" height="100.00" id="filter0">
<feFlood flood-color="rgb(255,255,255)" result="coFloodOut1"/>
<feComposite in="coFloodOut1" in2="SourceAlpha" operator="in" result="coOverlay1"/>
<feBlend in="coOverlay1" in2="SourceGraphic" mode="normal" result="colorOverlay1"/>
</filter>
<g><circle cx="28.00" cy="28.00" r="28.00" fill="rgb(240,157,15)"/><path fillRule="evenodd" d="M 18.26 32.31C 18.26 32.31 33.14 17.42 33.14 17.42 33.14 17.42 39.51 23.79 39.51 23.79 39.51 23.79 24.63 38.68 24.63 38.68 24.63 38.68 18.26 32.31 18.26 32.31ZM 33.83 21.01C 33.83 21.01 33.13 20.31 33.13 20.31 33.13 20.31 21.15 32.29 21.15 32.29 21.15 32.29 21.85 32.99 21.85 32.99 21.85 32.99 33.83 21.01 33.83 21.01ZM 35.22 22.41C 35.22 22.41 34.53 21.71 34.53 21.71 34.53 21.71 22.54 33.69 22.54 33.69 22.54 33.69 23.24 34.39 23.24 34.39 23.24 34.39 35.22 22.41 35.22 22.41ZM 36.62 23.8C 36.62 23.8 35.92 23.1 35.92 23.1 35.92 23.1 23.94 35.08 23.94 35.08 23.94 35.08 24.64 35.78 24.64 35.78 24.64 35.78 36.62 23.8 36.62 23.8ZM 35.99 14.61C 36.78 13.83 38.04 13.82 38.81 14.6 38.81 14.6 42.33 18.11 42.33 18.11 43.1 18.88 43.1 20.15 42.31 20.93 42.31 20.93 40.14 23.1 40.14 23.1 40.14 23.1 33.82 16.78 33.82 16.78 33.82 16.78 35.99 14.61 35.99 14.61ZM 17.77 33.13C 17.77 33.13 23.8 39.17 23.8 39.17 23.8 39.17 18.51 41.04 18.51 41.04 18.51 41.04 15.89 38.42 15.89 38.42 15.89 38.42 17.77 33.13 17.77 33.13ZM 17.51 41.37C 17.51 41.37 14.45 42.49 14.45 42.49 14.45 42.49 15.56 39.42 15.56 39.42 15.56 39.42 17.51 41.37 17.51 41.37Z" fill="rgb(255,255,255)" filter="url(#filter0)"/></g></svg>